<svg width="76" height="12" viewBox="0 0 76 12" fill="none" xmlns="http://www.w3.org/2000/svg">
<path d="M5.052 9.192C4.236 9.192 3.484 8.996 2.796 8.604C2.108 8.212 1.56 7.676 1.152 6.996C0.752 6.308 0.552 5.544 0.552 4.704C0.552 3.864 0.752 3.104 1.152 2.424C1.56 1.736 2.108 1.196 2.796 0.804C3.484 0.411999 4.236 0.215999 5.052 0.215999C5.7 0.215999 6.304 0.332 6.864 0.564C7.424 0.796 7.892 1.12 8.268 1.536L7.332 2.472C7.052 2.16 6.716 1.92 6.324 1.752C5.94 1.584 5.512 1.5 5.04 1.5C4.488 1.5 3.972 1.632 3.492 1.896C3.012 2.16 2.628 2.536 2.34 3.024C2.052 3.512 1.908 4.072 1.908 4.704C1.908 5.336 2.052 5.896 2.34 6.384C2.628 6.872 3.012 7.248 3.492 7.512C3.972 7.776 4.492 7.908 5.052 7.908C5.564 7.908 5.992 7.832 6.336 7.68C6.68 7.528 6.988 7.324 7.26 7.068C7.436 6.892 7.584 6.672 7.704 6.408C7.832 6.144 7.916 5.856 7.956 5.544H5.04V4.344H9.228C9.268 4.568 9.288 4.8 9.288 5.04C9.288 5.584 9.204 6.108 9.036 6.612C8.868 7.108 8.6 7.54 8.232 7.908C7.424 8.764 6.364 9.192 5.052 9.192Z" fill="#499EF1"/>
<path d="M13.4915 9.192C12.8755 9.192 12.3235 9.052 11.8355 8.772C11.3475 8.484 10.9675 8.092 10.6955 7.596C10.4235 7.1 10.2875 6.548 10.2875 5.94C10.2875 5.332 10.4235 4.78 10.6955 4.284C10.9675 3.788 11.3475 3.4 11.8355 3.12C12.3235 2.832 12.8755 2.688 13.4915 2.688C14.1075 2.688 14.6595 2.832 15.1475 3.12C15.6355 3.408 16.0155 3.8 16.2875 4.296C16.5595 4.792 16.6955 5.34 16.6955 5.94C16.6955 6.548 16.5595 7.1 16.2875 7.596C16.0155 8.092 15.6355 8.484 15.1475 8.772C14.6595 9.052 14.1075 9.192 13.4915 9.192ZM13.4915 7.98C13.8275 7.98 14.1395 7.9 14.4275 7.74C14.7155 7.572 14.9435 7.336 15.1115 7.032C15.2875 6.72 15.3755 6.356 15.3755 5.94C15.3755 5.524 15.2875 5.164 15.1115 4.86C14.9435 4.556 14.7155 4.324 14.4275 4.164C14.1395 3.996 13.8275 3.912 13.4915 3.912C13.1555 3.912 12.8435 3.996 12.5555 4.164C12.2675 4.324 12.0355 4.556 11.8595 4.86C11.6915 5.164 11.6075 5.524 11.6075 5.94C11.6075 6.356 11.6915 6.72 11.8595 7.032C12.0355 7.336 12.2675 7.572 12.5555 7.74C12.8435 7.9 13.1555 7.98 13.4915 7.98Z" fill="#E5233B"/>
<path d="M20.7805 9.192C20.1645 9.192 19.6125 9.052 19.1245 8.772C18.6365 8.484 18.2565 8.092 17.9845 7.596C17.7125 7.1 17.5765 6.548 17.5765 5.94C17.5765 5.332 17.7125 4.78 17.9845 4.284C18.2565 3.788 18.6365 3.4 19.1245 3.12C19.6125 2.832 20.1645 2.688 20.7805 2.688C21.3965 2.688 21.9485 2.832 22.4365 3.12C22.9245 3.408 23.3045 3.8 23.5765 4.296C23.8485 4.792 23.9845 5.34 23.9845 5.94C23.9845 6.548 23.8485 7.1 23.5765 7.596C23.3045 8.092 22.9245 8.484 22.4365 8.772C21.9485 9.052 21.3965 9.192 20.7805 9.192ZM20.7805 7.98C21.1165 7.98 21.4285 7.9 21.7165 7.74C22.0045 7.572 22.2325 7.336 22.4005 7.032C22.5765 6.72 22.6645 6.356 22.6645 5.94C22.6645 5.524 22.5765 5.164 22.4005 4.86C22.2325 4.556 22.0045 4.324 21.7165 4.164C21.4285 3.996 21.1165 3.912 20.7805 3.912C20.4445 3.912 20.1325 3.996 19.8445 4.164C19.5565 4.324 19.3245 4.556 19.1485 4.86C18.9805 5.164 18.8965 5.524 18.8965 5.94C18.8965 6.356 18.9805 6.72 19.1485 7.032C19.3245 7.336 19.5565 7.572 19.8445 7.74C20.1325 7.9 20.4445 7.98 20.7805 7.98Z" fill="#F5C503"/>
<path d="M27.9616 11.784C27.2096 11.784 26.5856 11.612 26.0896 11.268C25.6016 10.924 25.2736 10.516 25.1056 10.044L26.3416 9.528C26.4696 9.848 26.6736 10.104 26.9536 10.296C27.2416 10.496 27.5776 10.596 27.9616 10.596C28.5216 10.596 28.9576 10.428 29.2696 10.092C29.5896 9.764 29.7496 9.3 29.7496 8.7V8.136H29.6776C29.4776 8.424 29.2096 8.652 28.8736 8.82C28.5456 8.98 28.1656 9.06 27.7336 9.06C27.2216 9.06 26.7456 8.928 26.3056 8.664C25.8656 8.4 25.5136 8.028 25.2496 7.548C24.9936 7.06 24.8656 6.504 24.8656 5.88C24.8656 5.256 24.9936 4.704 25.2496 4.224C25.5136 3.736 25.8656 3.36 26.3056 3.096C26.7456 2.824 27.2216 2.688 27.7336 2.688C28.1576 2.688 28.5376 2.772 28.8736 2.94C29.2096 3.108 29.4776 3.336 29.6776 3.624H29.7496V2.88H31.0096V8.664C31.0096 9.328 30.8816 9.892 30.6256 10.356C30.3696 10.828 30.0096 11.184 29.5456 11.424C29.0896 11.664 28.5616 11.784 27.9616 11.784ZM27.9736 7.86C28.2936 7.86 28.5896 7.784 28.8616 7.632C29.1336 7.472 29.3496 7.244 29.5096 6.948C29.6696 6.644 29.7496 6.288 29.7496 5.88C29.7496 5.256 29.5776 4.772 29.2336 4.428C28.8976 4.076 28.4776 3.9 27.9736 3.9C27.6456 3.9 27.3456 3.98 27.0736 4.14C26.8016 4.292 26.5856 4.516 26.4256 4.812C26.2656 5.108 26.1856 5.464 26.1856 5.88C26.1856 6.296 26.2656 6.652 26.4256 6.948C26.5856 7.244 26.8016 7.472 27.0736 7.632C27.3456 7.784 27.6456 7.86 27.9736 7.86Z" fill="#5399E1"/>
<path d="M32.561 0.408H33.881V9H32.561V0.408Z" fill="#6CE38F"/>
<path d="M38.2281 9.192C37.6281 9.192 37.0881 9.052 36.6081 8.772C36.1361 8.492 35.7641 8.108 35.4921 7.62C35.2281 7.124 35.0961 6.568 35.0961 5.952C35.0961 5.368 35.2241 4.828 35.4801 4.332C35.7441 3.828 36.1081 3.428 36.5721 3.132C37.0361 2.836 37.5641 2.688 38.1561 2.688C38.7721 2.688 39.3041 2.824 39.7521 3.096C40.2081 3.368 40.5521 3.74 40.7841 4.212C41.0241 4.684 41.1441 5.216 41.1441 5.808C41.1441 5.92 41.1321 6.06 41.1081 6.228H36.4161C36.4641 6.796 36.6641 7.236 37.0161 7.548C37.3761 7.852 37.7921 8.004 38.2641 8.004C38.6401 8.004 38.9641 7.92 39.2361 7.752C39.5161 7.576 39.7401 7.34 39.9081 7.044L41.0241 7.572C40.7361 8.076 40.3601 8.472 39.8961 8.76C39.4321 9.048 38.8761 9.192 38.2281 9.192ZM39.8001 5.22C39.7841 5.004 39.7161 4.792 39.5961 4.584C39.4761 4.368 39.2921 4.188 39.0441 4.044C38.8041 3.9 38.5081 3.828 38.1561 3.828C37.7321 3.828 37.3721 3.956 37.0761 4.212C36.7881 4.46 36.5881 4.796 36.4761 5.22H39.8001Z" fill="#FC0C3B"/>
<path d="M45.3746 0.408H46.9706L50.8106 6.66H50.8826L50.8106 5.004V0.408H52.1426V9H50.7386L46.7066 2.424H46.6346L46.7066 4.08V9H45.3746V0.408ZM56.6851 9.192C56.0851 9.192 55.5451 9.052 55.0651 8.772C54.5931 8.492 54.2211 8.108 53.9491 7.62C53.6851 7.124 53.5531 6.568 53.5531 5.952C53.5531 5.368 53.6811 4.828 53.9371 4.332C54.2011 3.828 54.5651 3.428 55.0291 3.132C55.4931 2.836 56.0211 2.688 56.6131 2.688C57.2291 2.688 57.7611 2.824 58.2091 3.096C58.6651 3.368 59.0091 3.74 59.2411 4.212C59.4811 4.684 59.6011 5.216 59.6011 5.808C59.6011 5.92 59.5891 6.06 59.5651 6.228H54.8731C54.9211 6.796 55.1211 7.236 55.4731 7.548C55.8331 7.852 56.2491 8.004 56.7211 8.004C57.0971 8.004 57.4211 7.92 57.6931 7.752C57.9731 7.576 58.1971 7.34 58.3651 7.044L59.4811 7.572C59.1931 8.076 58.8171 8.472 58.3531 8.76C57.8891 9.048 57.3331 9.192 56.6851 9.192ZM58.2571 5.22C58.2411 5.004 58.1731 4.792 58.0531 4.584C57.9331 4.368 57.7491 4.188 57.5011 4.044C57.2611 3.9 56.9651 3.828 56.6131 3.828C56.1891 3.828 55.8291 3.956 55.5331 4.212C55.2451 4.46 55.0451 4.796 54.9331 5.22H58.2571ZM60.002 2.88H61.43L62.666 7.26H62.714L64.094 2.88H65.45L66.818 7.26H66.866L68.102 2.88H69.506L67.55 9H66.158L64.754 4.608H64.718L63.326 9H61.958L60.002 2.88ZM72.5859 9.192C71.8819 9.192 71.3059 9.04 70.8579 8.736C70.4099 8.424 70.0939 8.028 69.9099 7.548L71.0859 7.032C71.2299 7.352 71.4299 7.596 71.6859 7.764C71.9499 7.932 72.2499 8.016 72.5859 8.016C72.9139 8.016 73.1899 7.96 73.4139 7.848C73.6379 7.728 73.7499 7.552 73.7499 7.32C73.7499 7.096 73.6539 6.92 73.4619 6.792C73.2699 6.664 72.9739 6.552 72.5739 6.456L71.8419 6.276C71.3539 6.156 70.9499 5.944 70.6299 5.64C70.3099 5.336 70.1499 4.952 70.1499 4.488C70.1499 4.128 70.2539 3.812 70.4619 3.54C70.6779 3.268 70.9659 3.06 71.3259 2.916C71.6859 2.764 72.0779 2.688 72.5019 2.688C73.0699 2.688 73.5699 2.804 74.0019 3.036C74.4339 3.26 74.7459 3.588 74.9379 4.02L73.7859 4.524C73.5539 4.052 73.1299 3.816 72.5139 3.816C72.2179 3.816 71.9699 3.876 71.7699 3.996C71.5699 4.116 71.4699 4.272 71.4699 4.464C71.4699 4.648 71.5459 4.8 71.6979 4.92C71.8499 5.032 72.0739 5.128 72.3699 5.208L73.2699 5.436C73.8699 5.588 74.3219 5.82 74.6259 6.132C74.9379 6.436 75.0939 6.812 75.0939 7.26C75.0939 7.644 74.9819 7.984 74.7579 8.28C74.5419 8.568 74.2419 8.792 73.8579 8.952C73.4739 9.112 73.0499 9.192 72.5859 9.192Z" fill="#5B5B5B"/>
</svg>
